<?xml version="1.0" encoding="UTF-8"?>
<svg id="Layer_1" xmlns="http://www.w3.org/2000/svg" version="1.1" viewBox="0 0 232.66 230.19">
  <!-- Generator: Adobe Illustrator 29.8.1, SVG Export Plug-In . SVG Version: 2.1.1 Build 2)  -->
  <defs>
    <style>
      .st0 {
        fill: #fff;
      }
    </style>
  </defs>
  <path class="st0" d="M104.52,85.19l-21.76,5.83c-7.54,2.02-10.06,11.44-4.54,16.96l15.93,15.93c5.52,5.52,14.94,2.99,16.96-4.54l5.83-21.76c2.02-7.54-4.88-14.44-12.42-12.42l-21.76,5.83c-7.54,2.02-10.06,11.44-4.54,16.96l15.93,15.93c5.52,5.52,14.94,2.99,16.96-4.54l5.83-21.76c2.02-7.54-4.88-14.44-12.42-12.42Z"/>
  <path class="st0" d="M77.71,82.96l62.34-16.76c8.92-2.4,8.96-15.03.06-17.5l-53.86-14.91c-4.85-1.34-9.87,1.53-11.18,6.39l-8.49,31.68c-1.81,6.74,4.36,12.91,11.11,11.11l25.34-6.79c6.74-1.81,9-10.23,4.06-15.17l-18.55-18.55c-4.94-4.94-13.36-2.68-15.17,4.06l-6.79,25.33c-1.81,6.75,4.37,12.92,11.11,11.1Z"/>
  <path class="st0" d="M130.75,174.32l32.73-38.46c4.12-4.84,3.83-12.03-.66-16.52l-17.88-17.88c-6.63-6.63-17.96-3.6-20.39,5.46l-3.99,14.9c-2.43,9.06,5.86,17.36,14.93,14.93l14.9-3.99c9.06-2.43,12.1-13.76,5.46-20.39l-10.85-10.85c-6.65-6.65-18-3.59-20.4,5.5l-14.9,56.29c-3.32,12.54,12.66,20.9,21.07,11.02Z"/>
</svg>